<svg xmlns="http://www.w3.org/2000/svg" viewBox="0 0 234.8 164.03"><defs><style>.cls-1{fill:#f2f2f2;}.cls-2{fill:#1a1a1a;}.cls-3{fill:#e6e6e6;}</style></defs><g id="Слой_2" data-name="Слой 2"><g id="Слой_3" data-name="Слой 3"><path class="cls-1" d="M0,122.17H0Z"/><rect class="cls-2" x="130.74" y="-0.14" width="16.87" height="35.52" rx="8.44" transform="translate(-0.96 24.12) rotate(-9.87)"/><rect class="cls-2" x="143.01" y="8.23" width="15.09" height="26.65" rx="7.54" transform="translate(30.95 -72.39) rotate(30)"/><rect class="cls-2" x="122.04" y="9.4" width="13.65" height="25.51" rx="6.82" transform="translate(18.17 91.74) rotate(-41.91)"/><path class="cls-2" d="M216.41,92.07h9.52a0,0,0,0,1,0,0v30.84a0,0,0,0,1,0,0H185.57a0,0,0,0,1,0,0v0A30.84,30.84,0,0,1,216.41,92.07Z" transform="translate(411.5 214.98) rotate(-180)"/><path class="cls-2" d="M159.83,67.54h47A30.76,30.76,0,0,1,237.64,98.3v0a0,0,0,0,1,0,0H159.83a0,0,0,0,1,0,0V67.54a0,0,0,0,1,0,0Z" transform="translate(17.81 -33.86) rotate(10.19)"/><ellipse class="cls-1" cx="220.83" cy="84.29" rx="3.13" ry="4.8" transform="translate(56.52 254.22) rotate(-66.86)"/><rect class="cls-2" x="59.69" y="25.12" width="144.26" height="134.3" rx="67.15"/><circle class="cls-3" cx="169.93" cy="69.94" r="17.28"/><circle class="cls-2" cx="176.95" cy="66.93" r="7.02"/><ellipse class="cls-3" cx="173.02" cy="62.3" rx="3.04" ry="2.4"/><path class="cls-2" d="M59.74,11.88h0A21.6,21.6,0,0,1,87.53,22.23l45.8,94.22-18.78,8.2Z"/><path class="cls-2" d="M87.08,8h0c11.46-.53,21.49,8.11,22.4,19.3l8.51,105-20.76,1Z"/><path class="cls-2" d="M26.39,22.24h0c6.49-9,19.45-11,28.94-4.41l86.8,60.42L130.38,94.62Z"/><rect class="cls-2" x="88.68" y="123.63" width="6.27" height="38.75" rx="2.36" transform="translate(208.26 19.23) rotate(75.95)"/><rect class="cls-2" x="97.5" y="131.17" width="6.27" height="38.75" rx="2.36" transform="translate(156.78 -21.61) rotate(51.82)"/></g></g></svg>