<svg xmlns="http://www.w3.org/2000/svg" viewBox="0 0 206.84 164.03"><defs><style>.cls-1{fill:#1a1a1a;}.cls-2{fill:#f2f2f2;}.cls-3{fill:#e6e6e6;}</style></defs><g id="Слой_2" data-name="Слой 2"><g id="Слой_3" data-name="Слой 3"><path class="cls-1" d="M4.41,126.47h0A21.6,21.6,0,0,1,23,103.35L126.82,89.49l1.88,20.4Z"/><path class="cls-1" d="M9.3,99.29h0c3.1-11.05,14.46-17.85,25.36-15.2L137,109l-5.62,20Z"/><path class="cls-1" d="M3.77,161.39h0c-6.55-9-4.35-21.93,4.91-28.86l84.64-63.4,11.85,16.29Z"/><rect class="cls-1" x="102.78" y="-0.14" width="16.87" height="35.52" rx="8.44" transform="translate(-1.37 19.33) rotate(-9.87)"/><rect class="cls-1" x="115.05" y="8.23" width="15.09" height="26.65" rx="7.54" transform="translate(27.2 -58.41) rotate(30)"/><rect class="cls-1" x="94.08" y="9.4" width="13.65" height="25.51" rx="6.82" transform="translate(11.02 73.07) rotate(-41.91)"/><path class="cls-1" d="M188.45,92.07H198a0,0,0,0,1,0,0v30.84a0,0,0,0,1,0,0H157.61a0,0,0,0,1,0,0v0A30.84,30.84,0,0,1,188.45,92.07Z" transform="translate(355.58 214.98) rotate(-180)"/><path class="cls-1" d="M131.87,67.54h47A30.76,30.76,0,0,1,209.68,98.3v0a0,0,0,0,1,0,0H131.87a0,0,0,0,1,0,0V67.54a0,0,0,0,1,0,0Z" transform="translate(17.37 -28.91) rotate(10.19)"/><ellipse class="cls-2" cx="192.87" cy="84.29" rx="3.13" ry="4.8" transform="translate(39.55 228.51) rotate(-66.86)"/><rect class="cls-1" x="31.73" y="25.12" width="144.26" height="134.3" rx="67.15"/><circle class="cls-3" cx="141.97" cy="69.94" r="17.28"/><circle class="cls-1" cx="148.98" cy="66.93" r="7.02"/><ellipse class="cls-3" cx="145.05" cy="62.3" rx="3.04" ry="2.4"/><rect class="cls-1" x="60.72" y="123.63" width="6.27" height="38.75" rx="2.36" transform="translate(187.08 46.35) rotate(75.95)"/><rect class="cls-1" x="69.54" y="131.17" width="6.27" height="38.75" rx="2.36" transform="translate(146.1 0.37) rotate(51.82)"/></g></g></svg>