<svg xmlns="http://www.w3.org/2000/svg" viewBox="0 0 246.44 164.03"><defs><style>.cls-1{fill:#1a1a1a;}.cls-2{fill:#f2f2f2;}.cls-3{fill:#e6e6e6;}</style></defs><g id="Слой_2" data-name="Слой 2"><g id="Слой_3" data-name="Слой 3"><path class="cls-1" d="M25.79,52.75h0a21.6,21.6,0,0,1,29.56-2.42l81.47,65.85-13.51,15.39Z"/><path class="cls-1" d="M48.88,37.6h0c10.16-5.34,22.91-1.78,28.48,8L129.65,137l-18.39,9.68Z"/><path class="cls-1" d="M0,76.29H0C2,65.35,12.93,58.06,24.33,60L128.57,77.86l-3.69,19.81Z"/><rect class="cls-1" x="142.38" y="-0.14" width="16.87" height="35.52" rx="8.44" transform="translate(-0.79 26.12) rotate(-9.87)"/><rect class="cls-1" x="154.65" y="8.23" width="15.09" height="26.65" rx="7.54" transform="translate(32.51 -78.21) rotate(30)"/><rect class="cls-1" x="133.68" y="9.4" width="13.65" height="25.51" rx="6.82" transform="translate(21.15 99.52) rotate(-41.91)"/><path class="cls-1" d="M228,92.07h9.52a0,0,0,0,1,0,0v30.84a0,0,0,0,1,0,0H197.21a0,0,0,0,1,0,0v0A30.84,30.84,0,0,1,228,92.07Z" transform="translate(434.78 214.98) rotate(-180)"/><path class="cls-1" d="M171.47,67.54h47A30.76,30.76,0,0,1,249.28,98.3v0a0,0,0,0,1,0,0H171.47a0,0,0,0,1,0,0V67.54A0,0,0,0,1,171.47,67.54Z" transform="translate(18 -35.92) rotate(10.19)"/><ellipse class="cls-2" cx="232.47" cy="84.29" rx="3.13" ry="4.8" transform="translate(63.59 264.92) rotate(-66.86)"/><rect class="cls-1" x="71.33" y="25.12" width="144.26" height="134.3" rx="67.15"/><circle class="cls-3" cx="181.57" cy="69.94" r="17.28"/><circle class="cls-1" cx="188.58" cy="66.93" r="7.02"/><ellipse class="cls-3" cx="184.65" cy="62.3" rx="3.04" ry="2.4"/><rect class="cls-1" x="100.32" y="123.63" width="6.27" height="38.75" rx="2.36" transform="translate(217.07 7.94) rotate(75.95)"/><rect class="cls-1" x="109.13" y="131.17" width="6.27" height="38.75" rx="2.36" transform="matrix(0.62, 0.79, -0.79, 0.62, 161.22, -30.76)"/></g></g></svg>