<svg xmlns="http://www.w3.org/2000/svg" viewBox="0 0 234.11 164.03"><defs><style>.cls-1{fill:#1a1a1a;}.cls-2{fill:#f2f2f2;}.cls-3{fill:#e6e6e6;}</style></defs><g id="Слой_2" data-name="Слой 2"><g id="Слой_3" data-name="Слой 3"><path class="cls-1" d="M14.72,94.53h0A21.59,21.59,0,0,1,40.83,80.47l101,27.72-6.23,19.52Z"/><path class="cls-1" d="M29.81,71.4h0c7.17-9,20.28-10.8,29.29-4.11l84.52,62.85-13,16.24Z"/><path class="cls-1" d="M.51,126.43h0C-2,115.59,5.06,104.55,16.29,101.77L119,76.38,123.5,96Z"/><rect class="cls-1" x="130.06" y="-0.14" width="16.87" height="35.52" rx="8.44" transform="translate(-0.97 24.01) rotate(-9.87)"/><rect class="cls-1" x="142.33" y="8.23" width="15.09" height="26.65" rx="7.54" transform="translate(30.86 -72.05) rotate(30)"/><rect class="cls-1" x="121.35" y="9.4" width="13.65" height="25.51" rx="6.82" transform="translate(17.99 91.29) rotate(-41.91)"/><path class="cls-1" d="M215.73,92.07h9.52a0,0,0,0,1,0,0v30.84a0,0,0,0,1,0,0H184.89a0,0,0,0,1,0,0v0A30.84,30.84,0,0,1,215.73,92.07Z" transform="translate(410.14 214.98) rotate(-180)"/><path class="cls-1" d="M159.15,67.54h47A30.76,30.76,0,0,1,237,98.3v0a0,0,0,0,1,0,0H159.15a0,0,0,0,1,0,0V67.54A0,0,0,0,1,159.15,67.54Z" transform="translate(17.8 -33.74) rotate(10.19)"/><ellipse class="cls-2" cx="220.14" cy="84.29" rx="3.13" ry="4.8" transform="translate(56.11 253.59) rotate(-66.86)"/><rect class="cls-1" x="59.01" y="25.12" width="144.26" height="134.3" rx="67.15"/><circle class="cls-3" cx="169.25" cy="69.94" r="17.28"/><circle class="cls-1" cx="176.26" cy="66.93" r="7.02"/><ellipse class="cls-3" cx="172.33" cy="62.3" rx="3.04" ry="2.4"/><rect class="cls-1" x="87.99" y="123.63" width="6.27" height="38.75" rx="2.36" transform="translate(207.74 19.89) rotate(75.95)"/><rect class="cls-1" x="96.81" y="131.17" width="6.27" height="38.75" rx="2.36" transform="translate(156.52 -21.07) rotate(51.82)"/></g></g></svg>