<svg xmlns="http://www.w3.org/2000/svg" viewBox="0 0 175.11 195.16"><defs><style>.cls-1{fill:#1a1a1a;}.cls-2{fill:#f2f2f2;}.cls-3{fill:#e6e6e6;}</style></defs><g id="Слой_2" data-name="Слой 2"><g id="Слой_3" data-name="Слой 3"><path class="cls-1" d="M11.62,164.91h0a21.59,21.59,0,0,1,4-29.39l81.83-65.4,12.13,16.51Z"/><path class="cls-1" d="M1.79,139.1h0C-1.25,128,5,116.34,15.69,113L116.23,81.6l5.5,20Z"/><path class="cls-1" d="M29.06,195.16h0c-10.25-4.34-15-16.55-10.66-27.27L58.24,69.94l18.55,7.85Z"/><rect class="cls-1" x="71.05" y="-0.14" width="16.87" height="35.52" rx="8.44" transform="translate(-1.84 13.89) rotate(-9.87)"/><rect class="cls-1" x="83.32" y="8.23" width="15.09" height="26.65" rx="7.54" transform="translate(22.95 -42.54) rotate(30)"/><rect class="cls-1" x="62.35" y="9.4" width="13.65" height="25.51" rx="6.82" transform="translate(2.9 51.87) rotate(-41.91)"/><path class="cls-1" d="M156.72,92.07h9.52a0,0,0,0,1,0,0v30.84a0,0,0,0,1,0,0H125.88a0,0,0,0,1,0,0v0A30.84,30.84,0,0,1,156.72,92.07Z" transform="translate(292.12 214.98) rotate(-180)"/><path class="cls-1" d="M100.14,67.54h47A30.76,30.76,0,0,1,178,98.3v0a0,0,0,0,1,0,0H100.14a0,0,0,0,1,0,0V67.54A0,0,0,0,1,100.14,67.54Z" transform="translate(16.87 -23.3) rotate(10.19)"/><ellipse class="cls-2" cx="161.14" cy="84.29" rx="3.13" ry="4.8" transform="translate(20.29 199.33) rotate(-66.86)"/><rect class="cls-1" y="25.12" width="144.26" height="134.3" rx="67.15"/><circle class="cls-3" cx="110.24" cy="69.94" r="17.28"/><circle class="cls-1" cx="117.25" cy="66.93" r="7.02"/><ellipse class="cls-3" cx="113.32" cy="62.3" rx="3.04" ry="2.4"/><rect class="cls-1" x="28.99" y="123.63" width="6.27" height="38.75" rx="2.36" transform="translate(163.06 77.13) rotate(75.95)"/><rect class="cls-1" x="37.8" y="131.17" width="6.27" height="38.75" rx="2.36" transform="translate(133.98 25.31) rotate(51.82)"/></g></g></svg>