<svg xmlns="http://www.w3.org/2000/svg" viewBox="0 0 1077.6 123.09">
    <defs>
        <style>.cls-1{stroke:#fff;stroke-miterlimit:10;}</style>
    </defs>
    <g id="Слой_2" data-name="Слой 2">
    <g id="Слой_1-2" data-name="Слой 1">
    <polyline class="cls-1" points="0.02 122.59 1077.1 122.59 1077.1 70.5 962.25 60.99 635.17 69.69 486.47 66.47 233 60.99 83.98 67.08 0.02 70.5"/>
    <path d="M516.7,111.72s-9.26-65.67-26.1-69.88Z"/>
    <path d="M117.5,82.67S114,39.27,128.81,15.85c0,0-9.48,39.64-1.6,65.4Z"/>
    <path d="M105.43,83.86s14.15-45.64-4.53-58c0,0,19.71,8.8,12.34,57.35Z"/>
    <path d="M123,83.62s-.59-23.24,16.28-39.95c0,0-10,30-8.11,41.32Z"/>
    <path d="M123.11,84.53S107.31,44.4,84,31.17c0,0,25.66,30.26,29.93,57Z"/>
    <path d="M131.58,75.85S107.09,57.17,84,61.05c0,0,29.88,6.46,41,22.38Z"/>
    <path d="M123.11,81.5S141.84,62,159.45,61c0,0-22.8,10.58-31.31,25.51Z"/>
    <path d="M523.31,92.52s3.88-46.91,26.56-69.06c0,0-19.16,40.44-14.34,69.39Z"/>
    <path d="M529.86,94.57a60.77,60.77,0,0,1,27.58-39.49s-18,30.06-17.79,42.5Z"/>
    <path d="M0,79.06S.17,32,21,8.11c0,0-15.9,41.83-8.8,70.3Z"/>
    <path d="M3.27,80.06A60.7,60.7,0,0,1,31.41,41S13,70.78,13,83.21Z"/>
    <path d="M1034.55,105.92s5.53-57.53-21.94-66.61c0,0,27.79,4.55,31.8,63.51Z"/>
    <path d="M1049.58,106.64s-20.87-48.19-51.66-64.08c0,0,33.88,36.34,39.51,68.44Z"/>
    <path d="M825.7,80.88S823.43,27.61,848.33,0c0,0-17.75,47.79-7.37,79.8Z"/>
    <path d="M806.77,81.52s25.49-54.81-2.72-71.23c0,0,30.09,12.07,15,70.9Z"/>
    <path d="M834.16,82.41S835,54,862.55,34.7c0,0-17.87,36-15.74,49.93Z"/>
    <path d="M834.31,83.53s-21.66-50.09-57.06-67.84c0,0,37.78,38.7,42.43,71.65Z"/>
    <path d="M820,77.24s-22.93-16.33-45.64-14.13c0,0,28.78,6.56,38.81,20.07Z"/>
    <path d="M834.54,79.83s30.68-22.63,58.23-22.6c0,0-36.36,11.38-50.77,29Z"/>
    <path d="M339,99.66s7.63-43-15.37-68.49c0,0,13.61,41-.3,65.75Z"/>
    <path d="M339.62,90.69S328.53,66.78,306.8,59.47c0,0,22.08,17.59,23.21,33.72Z"/>
    <path d="M323.21,96.28s21.73-35.75,48.69-44.19c0,0-31.4,24.41-39,49.38Z"/>
    <path d="M1063.87,32.53s-41,71.52-27.72,88.5Z"/>
    </g>
    </g>
</svg>